<svg width="58" height="58" viewBox="0 0 58 58" fill="none" xmlns="http://www.w3.org/2000/svg">
<path d="M30.8752 40.875C36.398 40.875 40.8752 36.3978 40.8752 30.875C40.8752 25.3522 36.398 20.875 30.8752 20.875C25.3523 20.875 20.8752 25.3522 20.8752 30.875C20.8752 36.3978 25.3523 40.875 30.8752 40.875Z" fill="#A1B0FF"/>
<path d="M29.0002 39.625C34.8682 39.625 39.6252 34.868 39.6252 29C39.6252 23.132 34.8682 18.375 29.0002 18.375C23.1321 18.375 18.3752 23.132 18.3752 29C18.3752 34.868 23.1321 39.625 29.0002 39.625Z" stroke="black" stroke-width="1.25"/>
<path d="M18.3936 39.6066C8.63048 29.8435 5.46465 17.1802 11.3225 11.3223C17.1804 5.46444 29.8437 8.63027 39.6068 18.3934C49.3699 28.1565 52.5357 40.8198 46.6779 46.6776C40.82 52.5355 28.1567 49.3697 18.3936 39.6066Z" stroke="black" stroke-width="1.25"/>
<path d="M39.6066 39.6066C49.3697 29.8435 52.5356 17.1802 46.6777 11.3223C40.8198 5.46444 28.1565 8.63027 18.3934 18.3934C8.63032 28.1565 5.4645 40.8198 11.3224 46.6776C17.1802 52.5355 29.8435 49.3697 39.6066 39.6066Z" stroke="black" stroke-width="1.25"/>
<path d="M29.0002 34C31.7616 34 34.0002 31.7614 34.0002 29C34.0002 26.2386 31.7616 24 29.0002 24C26.2387 24 24.0002 26.2386 24.0002 29C24.0002 31.7614 26.2387 34 29.0002 34Z" stroke="black" stroke-width="1.25"/>
</svg>
