<svg width="38" height="56" viewBox="0 0 38 56" fill="none" xmlns="http://www.w3.org/2000/svg">
<g clip-path="url(#clip0_1094_47293)">
<path d="M9.33706 56C14.4891 56 18.6704 51.8186 18.6704 46.6666V37.3333H9.33706C4.18506 37.3333 0.00372314 41.5146 0.00372314 46.6666C0.00372314 51.8186 4.18506 56 9.33706 56Z" fill="#0ACF83"/>
<path d="M0.00372314 28C0.00372314 22.848 4.18506 18.6667 9.33706 18.6667H18.6704V37.3334H9.33706C4.18506 37.3334 0.00372314 33.152 0.00372314 28Z" fill="#A259FF"/>
<path d="M0.00450134 9.33333C0.00450134 4.18133 4.18583 0 9.33783 0H18.6712V18.6667H9.33783C4.18583 18.6667 0.00450134 14.4853 0.00450134 9.33333Z" fill="#F24E1E"/>
<path d="M18.6704 0H28.0037C33.1557 0 37.337 4.18133 37.337 9.33333C37.337 14.4853 33.1557 18.6667 28.0037 18.6667H18.6704V0Z" fill="#FF7262"/>
<path d="M37.337 28C37.337 33.152 33.1557 37.3334 28.0037 37.3334C22.8517 37.3334 18.6704 33.152 18.6704 28C18.6704 22.848 22.8517 18.6667 28.0037 18.6667C33.1557 18.6667 37.337 22.848 37.337 28Z" fill="#1ABCFE"/>
</g>
<defs>
<clipPath id="clip0_1094_47293">
<rect width="37.3408" height="56" fill="white"/>
</clipPath>
</defs>
</svg>
