<svg width="49" height="50" viewBox="0 0 49 50" fill="none" xmlns="http://www.w3.org/2000/svg">
<g clip-path="url(#clip0_1094_47315)">
<path d="M48.7921 25.2161C48.7921 23.5404 48.6562 21.8557 48.3664 20.2073H25.1158V29.6995H38.4303C37.8778 32.761 36.1025 35.4692 33.503 37.1901V43.3492H41.4465C46.1111 39.0559 48.7921 32.7157 48.7921 25.2161Z" fill="#4285F4"/>
<path d="M25.1158 49.2999C31.764 49.2999 37.3706 47.117 41.4555 43.3491L33.5121 37.19C31.302 38.6935 28.4489 39.5449 25.1248 39.5449C18.694 39.5449 13.2414 35.2064 11.285 29.3734H3.08792V35.7227C7.27249 44.0465 15.7956 49.2999 25.1158 49.2999Z" fill="#34A853"/>
<path d="M11.2759 29.3735C10.2433 26.312 10.2433 22.997 11.2759 19.9356V13.5862H3.08791C-0.40829 20.5515 -0.40829 28.7576 3.08791 35.7228L11.2759 29.3735Z" fill="#FBBC04"/>
<path d="M25.1158 9.75488C28.6301 9.70054 32.0266 11.0229 34.5718 13.4503L41.6095 6.41266C37.1532 2.2281 31.2386 -0.0725079 25.1158 -4.78502e-05C15.7956 -4.78502e-05 7.27249 5.2533 3.08792 13.5862L11.2759 19.9355C13.2233 14.0934 18.6849 9.75488 25.1158 9.75488Z" fill="#EA4335"/>
</g>
<defs>
<clipPath id="clip0_1094_47315">
<rect width="48.3218" height="49.3" fill="white" transform="translate(0.470245)"/>
</clipPath>
</defs>
</svg>
