<svg width="44" height="46" viewBox="0 0 44 46" fill="none" xmlns="http://www.w3.org/2000/svg">
<path fill-rule="evenodd" clip-rule="evenodd" d="M27.6903 0.602629L2.7156 2.4404C0.70185 2.6147 0 3.9275 0 5.5013V32.7974C0 34.0238 0.4374 35.072 1.4895 36.473L7.36035 44.0845C8.3247 45.3101 9.201 45.5723 11.0424 45.4846L40.0453 43.7345C42.4983 43.5604 43.2 42.4222 43.2 40.4975V9.78875C43.2 8.7938 42.8061 8.5064 41.6448 7.6592C41.5809 7.6127 41.5146 7.5644 41.446 7.51415L33.4738 1.91507C31.5462 0.515839 30.7572 0.339769 27.6903 0.602629ZM11.7 9.28505C9.3321 9.4448 8.79405 9.4811 7.4493 8.3894L4.02975 5.6774C3.681 5.3267 3.8559 4.8893 4.7316 4.80245L28.7419 3.05255C30.7567 2.8772 31.8081 3.5783 32.5971 4.1903L36.7153 7.16525C36.8907 7.2524 37.3281 7.77665 36.802 7.77665L12.0057 9.2645L11.7 9.28505ZM8.93805 40.2346V14.164C8.93805 13.0268 9.2886 12.5015 10.3395 12.4131L38.8173 10.7514C39.7833 10.664 40.2207 11.2769 40.2207 12.4131V38.309C40.2207 39.4472 40.0449 40.4108 38.467 40.4975L11.216 42.0733C9.63885 42.16 8.93805 41.6357 8.93805 40.2346ZM35.8404 15.5624C36.0151 16.3506 35.8404 17.138 35.0502 17.2267L33.7371 17.4881V36.7351C32.5971 37.3474 31.5459 37.6975 30.6699 37.6975C29.2674 37.6975 28.9161 37.2596 27.8656 35.948L19.2769 22.475V35.5106L21.9946 36.1234C21.9946 36.1234 21.9946 37.6975 19.8021 37.6975L13.7574 38.0479C13.5817 37.6975 13.7574 36.8233 14.3704 36.6481L15.9479 36.2113V18.9758L13.7577 18.8005C13.582 18.0124 14.0195 16.8759 15.2472 16.7877L21.7318 16.351L30.6699 29.9993V17.9255L28.3911 17.6642C28.216 16.7006 28.9161 16.001 29.7925 15.9142L35.8404 15.5624Z" fill="black"/>
</svg>
