<svg width="69" height="60" viewBox="0 0 69 60" fill="none" xmlns="http://www.w3.org/2000/svg">
<g filter="url(#filter0_d_1094_57567)">
<path fill-rule="evenodd" clip-rule="evenodd" d="M24.5184 1.61723C27.3128 0.0972339 30.6871 0.0972336 33.4815 1.61723L49.6815 10.4292C52.7 12.0711 54.5789 15.2321 54.5789 18.6681V35.3454C54.5789 38.7814 52.7 41.9424 49.6815 43.5843L33.4815 52.3963C30.6871 53.9163 27.3128 53.9163 24.5184 52.3963L8.31841 43.5843C5.29998 41.9424 3.42102 38.7814 3.42102 35.3454V18.6681C3.42102 15.2321 5.29998 12.0711 8.3184 10.4292L24.5184 1.61723Z" fill="white"/>
<path fill-rule="evenodd" clip-rule="evenodd" d="M33.3165 20.5458V27.0224C33.3165 32.7276 30.2567 35.5263 25.4226 35.5263C20.5885 35.5263 17.6315 32.7007 17.6315 27.157V20.5458C17.6315 19.3887 18.5058 18.4737 19.6114 18.4737C20.7171 18.4737 21.5914 19.3887 21.5914 20.5458V27.0493C21.5914 30.1172 23.057 31.705 25.474 31.705C27.8911 31.705 29.3567 30.171 29.3567 27.1839V20.5458C29.3567 19.3887 30.231 18.4737 31.3366 18.4737C32.4423 18.4737 33.3165 19.3887 33.3165 20.5458ZM38.3885 35.3918C37.2828 35.3918 36.4086 34.4768 36.4086 33.3196V20.5458C36.4086 19.3887 37.2828 18.4737 38.3885 18.4737C39.4941 18.4737 40.3684 19.3887 40.3684 20.5458V33.3196C40.3684 34.4768 39.4941 35.3918 38.3885 35.3918Z" fill="#2B3036"/>
<path fill-rule="evenodd" clip-rule="evenodd" d="M53.8649 24.4574C60.5341 24.4574 65.9405 18.9824 65.9405 12.2287C65.9405 5.47497 60.5341 0 53.8649 0C47.1958 0 41.7894 5.47497 41.7894 12.2287C41.7894 18.9824 47.1958 24.4574 53.8649 24.4574Z" fill="#2D68FF"/>
<path fill-rule="evenodd" clip-rule="evenodd" d="M53.8684 17.0527C55.9078 17.0527 57.421 16.0027 57.421 14.2066V14.179C57.421 13.0323 56.8684 12.4105 55.9342 11.8994C56.6447 11.4434 57.1052 10.8217 57.1052 9.78555V9.75792C57.1052 8.26581 55.8157 7.10529 53.8684 7.10529C51.921 7.10529 50.6315 8.27963 50.6315 9.75792V9.78555C50.6315 10.8217 51.0921 11.4434 51.8026 11.8994C50.8289 12.3691 50.3157 13.0599 50.3157 14.2342V14.2619C50.3157 15.9474 51.8289 17.0527 53.8684 17.0527ZM53.8684 11.1948C53.0657 11.1948 52.5526 10.6836 52.5526 10.0066V9.97897C52.5526 9.38489 53.0394 8.85989 53.8684 8.85989C54.6973 8.85989 55.1842 9.39871 55.1842 9.99279V10.0204C55.1842 10.6974 54.671 11.1948 53.8684 11.1948ZM52.2763 14.0961C52.2763 14.7592 52.8684 15.298 53.8684 15.298C54.8684 15.298 55.4605 14.773 55.4605 14.0961V14.0684C55.4605 13.3224 54.7894 12.8803 53.8684 12.8803C52.9473 12.8803 52.2763 13.3224 52.2763 14.0684V14.0961Z" fill="white"/>
</g>
<defs>
<filter id="filter0_d_1094_57567" x="0.578915" y="0" width="68.2036" height="59.6842" filterUnits="userSpaceOnUse" color-interpolation-filters="sRGB">
<feFlood flood-opacity="0" result="BackgroundImageFix"/>
<feColorMatrix in="SourceAlpha" type="matrix" values="0 0 0 0 0 0 0 0 0 0 0 0 0 0 0 0 0 0 127 0" result="hardAlpha"/>
<feOffset dy="2.84211"/>
<feGaussianBlur stdDeviation="1.42105"/>
<feColorMatrix type="matrix" values="0 0 0 0 0 0 0 0 0 0 0 0 0 0 0 0 0 0 0.1 0"/>
<feBlend mode="normal" in2="BackgroundImageFix" result="effect1_dropShadow_1094_57567"/>
<feBlend mode="normal" in="SourceGraphic" in2="effect1_dropShadow_1094_57567" result="shape"/>
</filter>
</defs>
</svg>
