<svg width="63" height="54" viewBox="0 0 63 54" fill="none" xmlns="http://www.w3.org/2000/svg">
<path fill-rule="evenodd" clip-rule="evenodd" d="M21.5184 1.61723C24.3128 0.0972339 27.6871 0.0972336 30.4815 1.61723L46.6815 10.4292C49.7 12.0711 51.5789 15.2321 51.5789 18.6681V35.3454C51.5789 38.7814 49.7 41.9424 46.6815 43.5843L30.4815 52.3963C27.6871 53.9163 24.3128 53.9163 21.5184 52.3963L5.31841 43.5843C2.29998 41.9424 0.421021 38.7814 0.421021 35.3454V18.6681C0.421021 15.2321 2.29998 12.0711 5.3184 10.4292L21.5184 1.61723Z" fill="white"/>
<path fill-rule="evenodd" clip-rule="evenodd" d="M30.3165 20.5458V27.0224C30.3165 32.7276 27.2567 35.5263 22.4226 35.5263C17.5885 35.5263 14.6315 32.7007 14.6315 27.157V20.5458C14.6315 19.3887 15.5058 18.4737 16.6114 18.4737C17.7171 18.4737 18.5914 19.3887 18.5914 20.5458V27.0493C18.5914 30.1172 20.057 31.705 22.474 31.705C24.8911 31.705 26.3567 30.171 26.3567 27.1839V20.5458C26.3567 19.3887 27.231 18.4737 28.3366 18.4737C29.4423 18.4737 30.3165 19.3887 30.3165 20.5458ZM35.3885 35.3918C34.2828 35.3918 33.4086 34.4768 33.4086 33.3196V20.5458C33.4086 19.3887 34.2828 18.4737 35.3885 18.4737C36.4941 18.4737 37.3684 19.3887 37.3684 20.5458V33.3196C37.3684 34.4768 36.4941 35.3918 35.3885 35.3918Z" fill="#2B3036"/>
<path fill-rule="evenodd" clip-rule="evenodd" d="M50.8649 24.4574C57.5341 24.4574 62.9405 18.9824 62.9405 12.2287C62.9405 5.47497 57.5341 0 50.8649 0C44.1958 0 38.7894 5.47497 38.7894 12.2287C38.7894 18.9824 44.1958 24.4574 50.8649 24.4574Z" fill="#2D68FF"/>
</svg>
