<svg width="24" height="24" viewBox="0 0 24 24" fill="none" xmlns="http://www.w3.org/2000/svg">
<path d="M12.746 1.46403L15.856 7.76403L22.81 8.77603C22.9636 8.79818 23.1079 8.8629 23.2266 8.96285C23.3454 9.06281 23.4337 9.19401 23.4817 9.3416C23.5297 9.48918 23.5354 9.64726 23.4981 9.79791C23.4609 9.94857 23.3822 10.0858 23.271 10.194L18.238 15.094L19.426 22.02C19.4522 22.173 19.4351 22.3303 19.3766 22.474C19.3181 22.6178 19.2206 22.7423 19.095 22.8336C18.9694 22.9248 18.8209 22.9791 18.6661 22.9903C18.5113 23.0015 18.3564 22.9692 18.219 22.897L12 19.632L5.78 22.9C5.64248 22.9719 5.48762 23.0039 5.33288 22.9925C5.17813 22.9811 5.02966 22.9267 4.90418 22.8354C4.7787 22.7441 4.68121 22.6196 4.6227 22.4759C4.56418 22.3322 4.54697 22.175 4.573 22.022L5.761 15.1L0.727996 10.2C0.616784 10.0918 0.538105 9.95457 0.500868 9.80391C0.463632 9.65326 0.469327 9.49518 0.517308 9.3476C0.56529 9.20001 0.65364 9.06881 0.772352 8.96885C0.891064 8.8689 1.03539 8.80418 1.189 8.78203L8.143 7.76503L11.253 1.46503C11.3218 1.32586 11.4281 1.20868 11.56 1.12671C11.6918 1.04475 11.8439 1.00126 11.9992 1.00116C12.1544 1.00106 12.3066 1.04434 12.4386 1.12613C12.5705 1.20791 12.677 1.32495 12.746 1.46403Z" fill="#FFDC60"/>
</svg>
