<svg width="40" height="40" viewBox="0 0 40 40" fill="none" xmlns="http://www.w3.org/2000/svg">
<path d="M15.8333 13.3333L26.6666 20L15.8333 26.6667V13.3333Z" stroke="#272E35" stroke-width="3" stroke-miterlimit="10" stroke-linecap="round" stroke-linejoin="round"/>
<path d="M4.99999 5H35C35.884 5 36.7319 5.35119 37.357 5.97631C37.9821 6.60143 38.3333 7.44928 38.3333 8.33333V31.6667C38.3333 32.5507 37.9821 33.3986 37.357 34.0237C36.7319 34.6488 35.884 35 35 35H4.99999C4.11593 35 3.26809 34.6488 2.64297 34.0237C2.01785 33.3986 1.66666 32.5507 1.66666 31.6667V8.33333C1.66666 7.44928 2.01785 6.60143 2.64297 5.97631C3.26809 5.35119 4.11593 5 4.99999 5V5Z" stroke="#272E35" stroke-width="3" stroke-miterlimit="10" stroke-linecap="round" stroke-linejoin="round"/>
</svg>
