<svg width="180" height="40" viewBox="0 0 180 40" fill="none" xmlns="http://www.w3.org/2000/svg">
<path fill-rule="evenodd" clip-rule="evenodd" d="M177 32.1518L175.535 32.9569C175.359 33.0532 175.142 32.9827 175.05 32.7995C175.013 32.7265 175.001 32.6429 175.014 32.5616L175.294 30.8564L174.108 29.6488C173.966 29.5043 173.964 29.2669 174.102 29.1186C174.157 29.0596 174.229 29.0212 174.307 29.0093L175.946 28.7605L176.678 27.2091C176.766 27.0234 176.981 26.9472 177.159 27.0388C177.23 27.0753 177.287 27.1351 177.322 27.2091L178.054 28.7605L179.693 29.0093C179.889 29.0391 180.025 29.2293 179.996 29.4342C179.985 29.5158 179.948 29.5913 179.892 29.6488L178.706 30.8564L178.986 32.5616C179.019 32.7657 178.888 32.9595 178.693 32.9945C178.615 33.0085 178.535 32.9952 178.465 32.9569L177 32.1518Z" fill="#FFDC60"/>
<path d="M57 11.456V14.62H48.852V19.632H55.096V22.74H48.852V31H44.932V11.456H57ZM60.9277 13.64C60.237 13.64 59.6583 13.4253 59.1917 12.996C58.7437 12.548 58.5197 11.9973 58.5197 11.344C58.5197 10.6907 58.7437 10.1493 59.1917 9.72C59.6583 9.272 60.237 9.048 60.9277 9.048C61.6183 9.048 62.1877 9.272 62.6357 9.72C63.1023 10.1493 63.3357 10.6907 63.3357 11.344C63.3357 11.9973 63.1023 12.548 62.6357 12.996C62.1877 13.4253 61.6183 13.64 60.9277 13.64ZM62.8597 15.488V31H58.9397V15.488H62.8597ZM72.3606 27.388L76.2806 15.488H80.4526L74.7126 31H69.9526L64.2406 15.488H68.4406L72.3606 27.388ZM96.2343 22.908C96.2343 23.468 96.197 23.972 96.1223 24.42H84.7823C84.8757 25.54 85.2677 26.4173 85.9583 27.052C86.649 27.6867 87.4983 28.004 88.5063 28.004C89.9623 28.004 90.9983 27.3787 91.6143 26.128H95.8423C95.3943 27.6213 94.5357 28.8533 93.2663 29.824C91.997 30.776 90.4383 31.252 88.5903 31.252C87.097 31.252 85.753 30.9253 84.5583 30.272C83.3823 29.6 82.4583 28.6573 81.7863 27.444C81.133 26.2307 80.8063 24.8307 80.8063 23.244C80.8063 21.6387 81.133 20.2293 81.7863 19.016C82.4397 17.8027 83.3543 16.8693 84.5303 16.216C85.7063 15.5627 87.0597 15.236 88.5903 15.236C90.065 15.236 91.381 15.5533 92.5383 16.188C93.7143 16.8227 94.6197 17.728 95.2543 18.904C95.9077 20.0613 96.2343 21.396 96.2343 22.908ZM92.1743 21.788C92.1557 20.78 91.7917 19.9773 91.0823 19.38C90.373 18.764 89.505 18.456 88.4783 18.456C87.5077 18.456 86.6863 18.7547 86.0143 19.352C85.361 19.9307 84.9597 20.7427 84.8103 21.788H92.1743ZM119.564 11.456V31H115.644V18.288L110.408 31H107.44L102.176 18.288V31H98.2556V11.456H102.708L108.924 25.988L115.14 11.456H119.564ZM137.019 22.908C137.019 23.468 136.982 23.972 136.907 24.42H125.567C125.661 25.54 126.053 26.4173 126.743 27.052C127.434 27.6867 128.283 28.004 129.291 28.004C130.747 28.004 131.783 27.3787 132.399 26.128H136.627C136.179 27.6213 135.321 28.8533 134.051 29.824C132.782 30.776 131.223 31.252 129.375 31.252C127.882 31.252 126.538 30.9253 125.343 30.272C124.167 29.6 123.243 28.6573 122.571 27.444C121.918 26.2307 121.591 24.8307 121.591 23.244C121.591 21.6387 121.918 20.2293 122.571 19.016C123.225 17.8027 124.139 16.8693 125.315 16.216C126.491 15.5627 127.845 15.236 129.375 15.236C130.85 15.236 132.166 15.5533 133.323 16.188C134.499 16.8227 135.405 17.728 136.039 18.904C136.693 20.0613 137.019 21.396 137.019 22.908ZM132.959 21.788C132.941 20.78 132.577 19.9773 131.867 19.38C131.158 18.764 130.29 18.456 129.263 18.456C128.293 18.456 127.471 18.7547 126.799 19.352C126.146 19.9307 125.745 20.7427 125.595 21.788H132.959ZM142.904 11.456V23.552C142.904 24.8773 143.25 25.8947 143.94 26.604C144.631 27.2947 145.602 27.64 146.852 27.64C148.122 27.64 149.102 27.2947 149.792 26.604C150.483 25.8947 150.828 24.8773 150.828 23.552V11.456H154.776V23.524C154.776 25.1853 154.412 26.5947 153.684 27.752C152.975 28.8907 152.014 29.7493 150.8 30.328C149.606 30.9067 148.271 31.196 146.796 31.196C145.34 31.196 144.015 30.9067 142.82 30.328C141.644 29.7493 140.711 28.8907 140.02 27.752C139.33 26.5947 138.984 25.1853 138.984 23.524V11.456H142.904ZM161.644 17.728C162.148 17.0187 162.839 16.4307 163.716 15.964C164.612 15.4787 165.629 15.236 166.768 15.236C168.093 15.236 169.288 15.5627 170.352 16.216C171.435 16.8693 172.284 17.8027 172.9 19.016C173.535 20.2107 173.852 21.6013 173.852 23.188C173.852 24.7747 173.535 26.184 172.9 27.416C172.284 28.6293 171.435 29.572 170.352 30.244C169.288 30.916 168.093 31.252 166.768 31.252C165.629 31.252 164.621 31.0187 163.744 30.552C162.885 30.0853 162.185 29.4973 161.644 28.788V38.392H157.724V15.488H161.644V17.728ZM169.848 23.188C169.848 22.2547 169.652 21.452 169.26 20.78C168.887 20.0893 168.383 19.5667 167.748 19.212C167.132 18.8573 166.46 18.68 165.732 18.68C165.023 18.68 164.351 18.8667 163.716 19.24C163.1 19.5947 162.596 20.1173 162.204 20.808C161.831 21.4987 161.644 22.3107 161.644 23.244C161.644 24.1773 161.831 24.9893 162.204 25.68C162.596 26.3707 163.1 26.9027 163.716 27.276C164.351 27.6307 165.023 27.808 165.732 27.808C166.46 27.808 167.132 27.6213 167.748 27.248C168.383 26.8747 168.887 26.3427 169.26 25.652C169.652 24.9613 169.848 24.14 169.848 23.188Z" fill="black"/>
<rect width="40" height="40" rx="11.4286" fill="black"/>
<path fill-rule="evenodd" clip-rule="evenodd" d="M20.4999 27.7485L14.8826 30.8346C14.2102 31.204 13.3787 30.9339 13.0252 30.2313C12.8845 29.9515 12.8359 29.6311 12.887 29.3195L13.9599 22.783L9.41533 18.1538C8.87141 17.5997 8.86028 16.6898 9.39047 16.1214C9.6016 15.895 9.87823 15.7477 10.1776 15.7023L16.4579 14.7486L19.2666 8.80148C19.6028 8.08969 20.4274 7.79744 21.1086 8.14873C21.3798 8.28862 21.5994 8.51804 21.7332 8.80148L24.5419 14.7486L30.8223 15.7023C31.5739 15.8164 32.0948 16.5457 31.9855 17.3313C31.942 17.6441 31.8011 17.9331 31.5845 18.1538L27.04 22.783L28.1128 29.3195C28.2412 30.1019 27.7384 30.8448 26.9897 30.979C26.6916 31.0325 26.385 30.9817 26.1173 30.8346L20.4999 27.7485Z" fill="white"/>
</svg>
